<?xml version="1.0" encoding="utf-8"?>
<!-- Generator: Adobe Illustrator 22.0.0, SVG Export Plug-In . SVG Version: 6.00 Build 0)  -->
<svg version="1.1" id="Layer_1" xmlns="http://www.w3.org/2000/svg" xmlns:xlink="http://www.w3.org/1999/xlink" x="0px" y="0px"
	 viewBox="0 0 166.8 45" style="enable-background:new 0 0 166.8 45;" xml:space="preserve">
<style type="text/css">
	.st0{opacity:1;}
	.st1{fill:#FFF;}
	.st2{opacity:1;fill:#FFF;}
</style>
<g class="st0">
	<g>
		<path class="st1" d="M3.4,40.8c0.3,0,0.5,0,0.7,0.1c0.2,0.1,0.4,0.2,0.5,0.3c0.1,0.1,0.2,0.3,0.3,0.4C5,41.7,5,41.9,5,42.1
			c0,0.2,0,0.4-0.1,0.5c-0.1,0.2-0.2,0.3-0.3,0.4c-0.1,0.1-0.3,0.2-0.5,0.3c-0.2,0.1-0.4,0.1-0.7,0.1H2.8V45H2.1v-4.2H3.4z
			 M3.4,42.9c0.2,0,0.3,0,0.4-0.1c0.1,0,0.2-0.1,0.3-0.2s0.1-0.2,0.2-0.3c0-0.1,0.1-0.2,0.1-0.3c0-0.1,0-0.2-0.1-0.3
			s-0.1-0.2-0.2-0.2c-0.1-0.1-0.2-0.1-0.3-0.2c-0.1,0-0.2-0.1-0.4-0.1H2.8v1.6H3.4z"/>
		<path class="st1" d="M12.1,45h-0.6c-0.1,0-0.2,0-0.3-0.1l-1-1.4c0,0-0.1-0.1-0.1-0.1c0,0-0.1,0-0.2,0H9.6V45H8.9v-4.2h1.2
			c0.3,0,0.5,0,0.7,0.1c0.2,0.1,0.4,0.1,0.5,0.2c0.1,0.1,0.2,0.2,0.3,0.4c0.1,0.1,0.1,0.3,0.1,0.5c0,0.1,0,0.3-0.1,0.4
			c0,0.1-0.1,0.2-0.2,0.3c-0.1,0.1-0.2,0.2-0.3,0.3c-0.1,0.1-0.3,0.1-0.4,0.2c0.1,0.1,0.2,0.1,0.2,0.2L12.1,45z M10.1,42.8
			c0.2,0,0.3,0,0.4-0.1c0.1,0,0.2-0.1,0.3-0.2c0.1-0.1,0.1-0.1,0.2-0.2c0-0.1,0.1-0.2,0.1-0.3c0-0.2-0.1-0.4-0.2-0.5
			c-0.2-0.1-0.4-0.2-0.7-0.2H9.6v1.5H10.1z"/>
		<path class="st1" d="M19.7,42.9c0,0.3-0.1,0.6-0.2,0.9c-0.1,0.3-0.2,0.5-0.4,0.7c-0.2,0.2-0.4,0.3-0.7,0.4
			c-0.3,0.1-0.5,0.2-0.9,0.2c-0.3,0-0.6-0.1-0.9-0.2c-0.3-0.1-0.5-0.3-0.7-0.4c-0.2-0.2-0.3-0.4-0.4-0.7c-0.1-0.3-0.2-0.5-0.2-0.9
			c0-0.3,0.1-0.6,0.2-0.9c0.1-0.3,0.2-0.5,0.4-0.7c0.2-0.2,0.4-0.3,0.7-0.4c0.3-0.1,0.5-0.2,0.9-0.2c0.3,0,0.6,0.1,0.9,0.2
			c0.3,0.1,0.5,0.3,0.7,0.4c0.2,0.2,0.3,0.4,0.4,0.7C19.6,42.3,19.7,42.6,19.7,42.9z M19,42.9c0-0.2,0-0.5-0.1-0.6
			c-0.1-0.2-0.2-0.4-0.3-0.5c-0.1-0.1-0.3-0.2-0.4-0.3c-0.2-0.1-0.4-0.1-0.6-0.1c-0.2,0-0.4,0-0.6,0.1c-0.2,0.1-0.3,0.2-0.4,0.3
			c-0.1,0.1-0.2,0.3-0.3,0.5c-0.1,0.2-0.1,0.4-0.1,0.6c0,0.2,0,0.5,0.1,0.6c0.1,0.2,0.2,0.4,0.3,0.5c0.1,0.1,0.3,0.2,0.4,0.3
			c0.2,0.1,0.4,0.1,0.6,0.1c0.2,0,0.4,0,0.6-0.1c0.2-0.1,0.3-0.2,0.4-0.3c0.1-0.1,0.2-0.3,0.3-0.5C19,43.3,19,43.1,19,42.9z"/>
		<path class="st1" d="M24.4,41.3v1.3H26v0.5h-1.6V45h-0.7v-4.2h2.6v0.5H24.4z"/>
		<path class="st1" d="M32.8,44.4l0,0.5h-2.6v-4.2h2.6v0.5h-1.9v1.3h1.5v0.5h-1.5v1.3H32.8z"/>
		<path class="st1" d="M39,41.5C39,41.5,38.9,41.6,39,41.5c-0.1,0.1-0.1,0.1-0.2,0.1c0,0-0.1,0-0.1,0c0,0-0.1-0.1-0.2-0.1
			c-0.1,0-0.1-0.1-0.2-0.1c-0.1,0-0.2,0-0.3,0c-0.1,0-0.2,0-0.3,0c-0.1,0-0.2,0.1-0.2,0.1c-0.1,0.1-0.1,0.1-0.1,0.2
			c0,0.1,0,0.1,0,0.2c0,0.1,0,0.2,0.1,0.3c0.1,0.1,0.1,0.1,0.2,0.2c0.1,0.1,0.2,0.1,0.3,0.1c0.1,0,0.2,0.1,0.4,0.1
			c0.1,0,0.2,0.1,0.4,0.1c0.1,0.1,0.2,0.1,0.3,0.2c0.1,0.1,0.2,0.2,0.2,0.3c0.1,0.1,0.1,0.3,0.1,0.4c0,0.2,0,0.4-0.1,0.5
			c-0.1,0.2-0.2,0.3-0.3,0.4c-0.1,0.1-0.3,0.2-0.4,0.3C38.2,45,38,45,37.8,45c-0.1,0-0.3,0-0.4,0c-0.1,0-0.2-0.1-0.4-0.1
			c-0.1,0-0.2-0.1-0.3-0.2c-0.1-0.1-0.2-0.1-0.3-0.2l0.2-0.3c0,0,0,0,0.1-0.1c0,0,0.1,0,0.1,0c0,0,0.1,0,0.1,0.1
			c0.1,0,0.1,0.1,0.2,0.1c0.1,0,0.2,0.1,0.3,0.1c0.1,0,0.2,0.1,0.4,0.1c0.2,0,0.4-0.1,0.6-0.2c0.1-0.1,0.2-0.3,0.2-0.5
			c0-0.1,0-0.2-0.1-0.3c-0.1-0.1-0.1-0.1-0.2-0.2c-0.1-0.1-0.2-0.1-0.3-0.1c-0.1,0-0.2-0.1-0.4-0.1c-0.1,0-0.2-0.1-0.4-0.1
			c-0.1-0.1-0.2-0.1-0.3-0.2c-0.1-0.1-0.2-0.2-0.2-0.3c-0.1-0.1-0.1-0.3-0.1-0.5c0-0.2,0-0.3,0.1-0.4s0.1-0.3,0.3-0.4
			c0.1-0.1,0.3-0.2,0.4-0.3c0.2-0.1,0.4-0.1,0.6-0.1c0.2,0,0.5,0,0.7,0.1c0.2,0.1,0.4,0.2,0.5,0.3L39,41.5z"/>
		<path class="st1" d="M45.4,41.5C45.4,41.5,45.4,41.6,45.4,41.5c-0.1,0.1-0.1,0.1-0.2,0.1c0,0-0.1,0-0.1,0c0,0-0.1-0.1-0.2-0.1
			c-0.1,0-0.1-0.1-0.2-0.1c-0.1,0-0.2,0-0.3,0c-0.1,0-0.2,0-0.3,0c-0.1,0-0.2,0.1-0.2,0.1c-0.1,0.1-0.1,0.1-0.1,0.2
			c0,0.1,0,0.1,0,0.2c0,0.1,0,0.2,0.1,0.3c0.1,0.1,0.1,0.1,0.2,0.2c0.1,0.1,0.2,0.1,0.3,0.1c0.1,0,0.2,0.1,0.4,0.1
			c0.1,0,0.2,0.1,0.4,0.1c0.1,0.1,0.2,0.1,0.3,0.2c0.1,0.1,0.2,0.2,0.2,0.3c0.1,0.1,0.1,0.3,0.1,0.4c0,0.2,0,0.4-0.1,0.5
			c-0.1,0.2-0.2,0.3-0.3,0.4c-0.1,0.1-0.3,0.2-0.4,0.3C44.6,45,44.4,45,44.2,45c-0.1,0-0.3,0-0.4,0c-0.1,0-0.2-0.1-0.4-0.1
			c-0.1,0-0.2-0.1-0.3-0.2c-0.1-0.1-0.2-0.1-0.3-0.2l0.2-0.3c0,0,0,0,0.1-0.1c0,0,0.1,0,0.1,0c0,0,0.1,0,0.1,0.1
			c0.1,0,0.1,0.1,0.2,0.1c0.1,0,0.2,0.1,0.3,0.1c0.1,0,0.2,0.1,0.4,0.1c0.2,0,0.4-0.1,0.6-0.2c0.1-0.1,0.2-0.3,0.2-0.5
			c0-0.1,0-0.2-0.1-0.3c-0.1-0.1-0.1-0.1-0.2-0.2c-0.1-0.1-0.2-0.1-0.3-0.1c-0.1,0-0.2-0.1-0.4-0.1c-0.1,0-0.2-0.1-0.4-0.1
			c-0.1-0.1-0.2-0.1-0.3-0.2c-0.1-0.1-0.2-0.2-0.2-0.3c-0.1-0.1-0.1-0.3-0.1-0.5c0-0.2,0-0.3,0.1-0.4s0.1-0.3,0.3-0.4
			c0.1-0.1,0.3-0.2,0.4-0.3c0.2-0.1,0.4-0.1,0.6-0.1c0.2,0,0.5,0,0.7,0.1c0.2,0.1,0.4,0.2,0.5,0.3L45.4,41.5z"/>
		<path class="st1" d="M50.3,45h-0.7v-4.2h0.7V45z"/>
		<path class="st1" d="M58.5,42.9c0,0.3-0.1,0.6-0.2,0.9c-0.1,0.3-0.2,0.5-0.4,0.7c-0.2,0.2-0.4,0.3-0.7,0.4
			C57,44.9,56.7,45,56.4,45c-0.3,0-0.6-0.1-0.9-0.2c-0.3-0.1-0.5-0.3-0.7-0.4c-0.2-0.2-0.3-0.4-0.4-0.7c-0.1-0.3-0.2-0.5-0.2-0.9
			c0-0.3,0.1-0.6,0.2-0.9c0.1-0.3,0.2-0.5,0.4-0.7c0.2-0.2,0.4-0.3,0.7-0.4c0.3-0.1,0.5-0.2,0.9-0.2c0.3,0,0.6,0.1,0.9,0.2
			c0.3,0.1,0.5,0.3,0.7,0.4c0.2,0.2,0.3,0.4,0.4,0.7C58.4,42.3,58.5,42.6,58.5,42.9z M57.8,42.9c0-0.2,0-0.5-0.1-0.6
			c-0.1-0.2-0.2-0.4-0.3-0.5c-0.1-0.1-0.3-0.2-0.4-0.3c-0.2-0.1-0.4-0.1-0.6-0.1c-0.2,0-0.4,0-0.6,0.1c-0.2,0.1-0.3,0.2-0.4,0.3
			c-0.1,0.1-0.2,0.3-0.3,0.5C55,42.4,55,42.6,55,42.9c0,0.2,0,0.5,0.1,0.6c0.1,0.2,0.2,0.4,0.3,0.5c0.1,0.1,0.3,0.2,0.4,0.3
			c0.2,0.1,0.4,0.1,0.6,0.1c0.2,0,0.4,0,0.6-0.1c0.2-0.1,0.3-0.2,0.4-0.3c0.1-0.1,0.2-0.3,0.3-0.5C57.7,43.3,57.8,43.1,57.8,42.9z"
			/>
		<path class="st1" d="M65.9,40.8V45h-0.3c-0.1,0-0.1,0-0.1,0c0,0-0.1,0-0.1-0.1L63,41.9c0,0.1,0,0.1,0,0.2c0,0.1,0,0.1,0,0.2V45
			h-0.6v-4.2h0.4c0,0,0.1,0,0.1,0c0,0,0,0,0.1,0s0,0,0,0c0,0,0,0,0,0.1l2.3,2.9c0-0.1,0-0.1,0-0.2c0-0.1,0-0.1,0-0.2v-2.7H65.9z"/>
		<path class="st1" d="M73.7,45h-0.5c-0.1,0-0.1,0-0.1,0c0,0-0.1-0.1-0.1-0.1l-0.3-0.9h-1.8l-0.3,0.9c0,0,0,0.1-0.1,0.1
			c0,0-0.1,0-0.1,0h-0.5l1.7-4.2H72L73.7,45z M72.4,43.4l-0.6-1.5c0-0.1-0.1-0.3-0.1-0.4c0,0.1,0,0.2-0.1,0.3c0,0.1,0,0.1-0.1,0.2
			l-0.6,1.5H72.4z"/>
		<path class="st1" d="M79.8,44.4V45h-2.4v-4.2h0.7v3.6H79.8z"/>
		<path class="st1" d="M90.3,41.5C90.3,41.5,90.3,41.6,90.3,41.5c-0.1,0.1-0.1,0.1-0.2,0.1c0,0-0.1,0-0.1,0c0,0-0.1-0.1-0.2-0.1
			c-0.1,0-0.1-0.1-0.2-0.1c-0.1,0-0.2,0-0.3,0c-0.1,0-0.2,0-0.3,0c-0.1,0-0.2,0.1-0.2,0.1c-0.1,0.1-0.1,0.1-0.1,0.2
			c0,0.1,0,0.1,0,0.2c0,0.1,0,0.2,0.1,0.3c0.1,0.1,0.1,0.1,0.2,0.2c0.1,0.1,0.2,0.1,0.3,0.1c0.1,0,0.2,0.1,0.4,0.1
			c0.1,0,0.2,0.1,0.4,0.1c0.1,0.1,0.2,0.1,0.3,0.2c0.1,0.1,0.2,0.2,0.2,0.3s0.1,0.3,0.1,0.4c0,0.2,0,0.4-0.1,0.5
			c-0.1,0.2-0.2,0.3-0.3,0.4c-0.1,0.1-0.3,0.2-0.4,0.3C89.6,45,89.4,45,89.2,45c-0.1,0-0.3,0-0.4,0c-0.1,0-0.2-0.1-0.4-0.1
			c-0.1,0-0.2-0.1-0.3-0.2c-0.1-0.1-0.2-0.1-0.3-0.2l0.2-0.3c0,0,0,0,0.1-0.1c0,0,0.1,0,0.1,0c0,0,0.1,0,0.1,0.1
			c0.1,0,0.1,0.1,0.2,0.1c0.1,0,0.2,0.1,0.3,0.1c0.1,0,0.2,0.1,0.4,0.1c0.2,0,0.4-0.1,0.6-0.2c0.1-0.1,0.2-0.3,0.2-0.5
			c0-0.1,0-0.2-0.1-0.3c-0.1-0.1-0.1-0.1-0.2-0.2c-0.1-0.1-0.2-0.1-0.3-0.1c-0.1,0-0.2-0.1-0.4-0.1c-0.1,0-0.2-0.1-0.4-0.1
			c-0.1-0.1-0.2-0.1-0.3-0.2c-0.1-0.1-0.2-0.2-0.2-0.3C88,42.3,88,42.1,88,41.9c0-0.2,0-0.3,0.1-0.4s0.1-0.3,0.3-0.4
			c0.1-0.1,0.3-0.2,0.4-0.3c0.2-0.1,0.4-0.1,0.6-0.1c0.2,0,0.5,0,0.7,0.1c0.2,0.1,0.4,0.2,0.5,0.3L90.3,41.5z"/>
		<path class="st1" d="M97.2,44.4l0,0.5h-2.6v-4.2h2.6v0.5h-1.9v1.3h1.5v0.5h-1.5v1.3H97.2z"/>
		<path class="st1" d="M105,42.9c0,0.3-0.1,0.6-0.2,0.9c-0.1,0.3-0.2,0.5-0.4,0.7c-0.2,0.2-0.4,0.3-0.7,0.4
			c-0.3,0.1-0.5,0.2-0.9,0.2c-0.3,0-0.6-0.1-0.9-0.2c-0.3-0.1-0.5-0.3-0.7-0.4c-0.2-0.2-0.3-0.4-0.4-0.7c-0.1-0.3-0.2-0.5-0.2-0.9
			c0-0.3,0.1-0.6,0.2-0.9c0.1-0.3,0.2-0.5,0.4-0.7c0.2-0.2,0.4-0.3,0.7-0.4c0.3-0.1,0.5-0.2,0.9-0.2c0.3,0,0.6,0.1,0.9,0.2
			c0.3,0.1,0.5,0.3,0.7,0.4c0.2,0.2,0.3,0.4,0.4,0.7C104.9,42.3,105,42.6,105,42.9z M104.3,42.9c0-0.2,0-0.5-0.1-0.6
			c-0.1-0.2-0.2-0.4-0.3-0.5c-0.1-0.1-0.3-0.2-0.4-0.3c-0.2-0.1-0.4-0.1-0.6-0.1c-0.2,0-0.4,0-0.6,0.1c-0.2,0.1-0.3,0.2-0.4,0.3
			c-0.1,0.1-0.2,0.3-0.3,0.5c-0.1,0.2-0.1,0.4-0.1,0.6c0,0.2,0,0.5,0.1,0.6c0.1,0.2,0.2,0.4,0.3,0.5c0.1,0.1,0.3,0.2,0.4,0.3
			s0.4,0.1,0.6,0.1c0.2,0,0.4,0,0.6-0.1s0.3-0.2,0.4-0.3c0.1-0.1,0.2-0.3,0.3-0.5C104.3,43.3,104.3,43.1,104.3,42.9z"/>
		<path class="st1" d="M115.9,41.5C115.8,41.5,115.8,41.6,115.9,41.5c-0.1,0.1-0.1,0.1-0.2,0.1c0,0-0.1,0-0.1,0c0,0-0.1-0.1-0.2-0.1
			c-0.1,0-0.1-0.1-0.2-0.1c-0.1,0-0.2,0-0.3,0c-0.1,0-0.2,0-0.3,0c-0.1,0-0.2,0.1-0.2,0.1c-0.1,0.1-0.1,0.1-0.1,0.2
			c0,0.1,0,0.1,0,0.2c0,0.1,0,0.2,0.1,0.3c0.1,0.1,0.1,0.1,0.2,0.2c0.1,0.1,0.2,0.1,0.3,0.1c0.1,0,0.2,0.1,0.4,0.1
			c0.1,0,0.2,0.1,0.4,0.1c0.1,0.1,0.2,0.1,0.3,0.2c0.1,0.1,0.2,0.2,0.2,0.3c0.1,0.1,0.1,0.3,0.1,0.4c0,0.2,0,0.4-0.1,0.5
			c-0.1,0.2-0.2,0.3-0.3,0.4c-0.1,0.1-0.3,0.2-0.4,0.3c-0.2,0.1-0.4,0.1-0.6,0.1c-0.1,0-0.3,0-0.4,0c-0.1,0-0.2-0.1-0.4-0.1
			c-0.1,0-0.2-0.1-0.3-0.2c-0.1-0.1-0.2-0.1-0.3-0.2l0.2-0.3c0,0,0,0,0.1-0.1c0,0,0.1,0,0.1,0c0,0,0.1,0,0.1,0.1
			c0.1,0,0.1,0.1,0.2,0.1c0.1,0,0.2,0.1,0.3,0.1c0.1,0,0.2,0.1,0.4,0.1c0.2,0,0.4-0.1,0.6-0.2c0.1-0.1,0.2-0.3,0.2-0.5
			c0-0.1,0-0.2-0.1-0.3c-0.1-0.1-0.1-0.1-0.2-0.2c-0.1-0.1-0.2-0.1-0.3-0.1c-0.1,0-0.2-0.1-0.4-0.1c-0.1,0-0.2-0.1-0.4-0.1
			c-0.1-0.1-0.2-0.1-0.3-0.2c-0.1-0.1-0.2-0.2-0.2-0.3c-0.1-0.1-0.1-0.3-0.1-0.5c0-0.2,0-0.3,0.1-0.4c0.1-0.1,0.1-0.3,0.3-0.4
			c0.1-0.1,0.3-0.2,0.4-0.3c0.2-0.1,0.4-0.1,0.6-0.1c0.2,0,0.5,0,0.7,0.1c0.2,0.1,0.4,0.2,0.5,0.3L115.9,41.5z"/>
		<path class="st1" d="M122.7,44.4l0,0.5h-2.6v-4.2h2.6v0.5h-1.9v1.3h1.5v0.5h-1.5v1.3H122.7z"/>
		<path class="st1" d="M129.8,45h-0.6c-0.1,0-0.2,0-0.3-0.1l-1-1.4c0,0-0.1-0.1-0.1-0.1c0,0-0.1,0-0.2,0h-0.4V45h-0.7v-4.2h1.2
			c0.3,0,0.5,0,0.7,0.1c0.2,0.1,0.4,0.1,0.5,0.2c0.1,0.1,0.2,0.2,0.3,0.4c0.1,0.1,0.1,0.3,0.1,0.5c0,0.1,0,0.3-0.1,0.4
			s-0.1,0.2-0.2,0.3c-0.1,0.1-0.2,0.2-0.3,0.3c-0.1,0.1-0.3,0.1-0.4,0.2c0.1,0.1,0.2,0.1,0.2,0.2L129.8,45z M127.9,42.8
			c0.2,0,0.3,0,0.4-0.1c0.1,0,0.2-0.1,0.3-0.2c0.1-0.1,0.1-0.1,0.2-0.2c0-0.1,0.1-0.2,0.1-0.3c0-0.2-0.1-0.4-0.2-0.5
			c-0.2-0.1-0.4-0.2-0.7-0.2h-0.6v1.5H127.9z"/>
		<path class="st1" d="M137,40.8l-1.7,4.2h-0.6l-1.7-4.2h0.5c0.1,0,0.1,0,0.1,0c0,0,0.1,0.1,0.1,0.1l1.1,2.7
			c0.1,0.2,0.1,0.3,0.2,0.5c0-0.1,0-0.2,0.1-0.3c0-0.1,0.1-0.2,0.1-0.2l1.1-2.7c0,0,0-0.1,0.1-0.1c0,0,0.1,0,0.1,0H137z"/>
		<path class="st1" d="M141.4,45h-0.7v-4.2h0.7V45z"/>
		<path class="st1" d="M148.5,44C148.6,44,148.6,44,148.5,44l0.4,0.3c-0.2,0.2-0.4,0.4-0.6,0.5c-0.2,0.1-0.5,0.2-0.9,0.2
			c-0.3,0-0.6-0.1-0.8-0.2c-0.2-0.1-0.5-0.3-0.6-0.4c-0.2-0.2-0.3-0.4-0.4-0.7c-0.1-0.3-0.1-0.5-0.1-0.9s0-0.6,0.1-0.9
			c0.1-0.3,0.2-0.5,0.4-0.7c0.2-0.2,0.4-0.3,0.6-0.4c0.3-0.1,0.5-0.2,0.8-0.2c0.3,0,0.6,0,0.8,0.1c0.2,0.1,0.4,0.2,0.6,0.4l-0.2,0.3
			c0,0,0,0-0.1,0.1c0,0-0.1,0-0.1,0c0,0-0.1,0-0.1-0.1c0,0-0.1-0.1-0.2-0.1c-0.1,0-0.2-0.1-0.3-0.1c-0.1,0-0.3-0.1-0.4-0.1
			c-0.2,0-0.4,0-0.5,0.1c-0.2,0.1-0.3,0.2-0.4,0.3c-0.1,0.1-0.2,0.3-0.3,0.5c-0.1,0.2-0.1,0.4-0.1,0.7c0,0.2,0,0.5,0.1,0.7
			c0.1,0.2,0.2,0.4,0.3,0.5c0.1,0.1,0.3,0.2,0.4,0.3c0.2,0.1,0.3,0.1,0.5,0.1c0.1,0,0.2,0,0.3,0c0.1,0,0.2,0,0.3-0.1
			s0.2-0.1,0.2-0.1c0.1,0,0.1-0.1,0.2-0.2C148.5,44,148.5,44,148.5,44z"/>
		<path class="st1" d="M155.3,44.4l0,0.5h-2.6v-4.2h2.6v0.5h-1.9v1.3h1.5v0.5h-1.5v1.3H155.3z"/>
		<path class="st1" d="M161.5,41.5C161.5,41.5,161.5,41.6,161.5,41.5c-0.1,0.1-0.1,0.1-0.2,0.1c0,0-0.1,0-0.1,0c0,0-0.1-0.1-0.2-0.1
			c-0.1,0-0.1-0.1-0.2-0.1c-0.1,0-0.2,0-0.3,0c-0.1,0-0.2,0-0.3,0c-0.1,0-0.2,0.1-0.2,0.1c-0.1,0.1-0.1,0.1-0.1,0.2
			c0,0.1,0,0.1,0,0.2c0,0.1,0,0.2,0.1,0.3c0.1,0.1,0.1,0.1,0.2,0.2c0.1,0.1,0.2,0.1,0.3,0.1c0.1,0,0.2,0.1,0.4,0.1
			c0.1,0,0.2,0.1,0.4,0.1c0.1,0.1,0.2,0.1,0.3,0.2c0.1,0.1,0.2,0.2,0.2,0.3c0.1,0.1,0.1,0.3,0.1,0.4c0,0.2,0,0.4-0.1,0.5
			c-0.1,0.2-0.2,0.3-0.3,0.4c-0.1,0.1-0.3,0.2-0.4,0.3c-0.2,0.1-0.4,0.1-0.6,0.1c-0.1,0-0.3,0-0.4,0c-0.1,0-0.2-0.1-0.4-0.1
			c-0.1,0-0.2-0.1-0.3-0.2c-0.1-0.1-0.2-0.1-0.3-0.2l0.2-0.3c0,0,0,0,0.1-0.1c0,0,0.1,0,0.1,0c0,0,0.1,0,0.1,0.1
			c0.1,0,0.1,0.1,0.2,0.1c0.1,0,0.2,0.1,0.3,0.1c0.1,0,0.2,0.1,0.4,0.1c0.2,0,0.4-0.1,0.6-0.2c0.1-0.1,0.2-0.3,0.2-0.5
			c0-0.1,0-0.2-0.1-0.3c-0.1-0.1-0.1-0.1-0.2-0.2c-0.1-0.1-0.2-0.1-0.3-0.1c-0.1,0-0.2-0.1-0.4-0.1c-0.1,0-0.2-0.1-0.4-0.1
			c-0.1-0.1-0.2-0.1-0.3-0.2c-0.1-0.1-0.2-0.2-0.2-0.3c-0.1-0.1-0.1-0.3-0.1-0.5c0-0.2,0-0.3,0.1-0.4s0.1-0.3,0.3-0.4
			c0.1-0.1,0.3-0.2,0.4-0.3c0.2-0.1,0.4-0.1,0.6-0.1c0.2,0,0.5,0,0.7,0.1c0.2,0.1,0.4,0.2,0.5,0.3L161.5,41.5z"/>
	</g>
</g>
<path class="st1" d="M47.3,9.5h-8.1V4.4h21.9L51,9.5h2.7v22.1h-6.3V9.5z"/>
<path class="st1" d="M72.2,9.5h-8.1V4.4h21.9L75.8,9.5h2.7v22.1h-6.3V9.5z"/>
<g>
	<g>
		<g>
			<path class="st1" d="M164.5,5.5l-0.5-0.7c-0.1,0-0.1,0-0.1,0h-0.5v0.7h-0.3V3.2h0.9c0.3,0,0.5,0.1,0.7,0.2
				c0.2,0.1,0.2,0.3,0.2,0.6c0,0.2,0,0.3-0.1,0.4c-0.1,0.1-0.2,0.2-0.4,0.3l0.5,0.7H164.5z M164.4,4.4c0.1-0.1,0.2-0.2,0.2-0.4
				s-0.1-0.3-0.2-0.4c-0.1-0.1-0.3-0.1-0.5-0.1h-0.5v1h0.5C164.1,4.5,164.3,4.5,164.4,4.4z"/>
		</g>
		<g>
			<path class="st1" d="M163.9,7.5c-1.7,0-3-1.3-3-3s1.3-3,3-3s3,1.3,3,3S165.6,7.5,163.9,7.5z M163.9,1.9c-1.4,0-2.6,1.2-2.6,2.6
				s1.2,2.6,2.6,2.6s2.6-1.2,2.6-2.6S165.4,1.9,163.9,1.9z"/>
		</g>
	</g>
</g>
<path class="st1" d="M4.3,25.1"/>
<path class="st1" d="M91.4,30.6c-1.8-0.7-3.2-1.6-4.2-2.6l0.9-1.5c1,1,2.2,1.8,3.8,2.5c1.6,0.6,3.3,0.9,5.1,0.9
	c2.6,0,4.5-0.5,5.8-1.5c1.3-1,2-2.3,2-3.8c0-1.2-0.3-2.2-1-2.9c-0.7-0.7-1.6-1.3-2.6-1.7c-1-0.4-2.4-0.8-4.2-1.2
	c-2-0.5-3.6-1-4.8-1.4c-1.2-0.5-2.2-1.2-3.1-2.1c-0.8-1-1.3-2.3-1.3-3.9c0-1.3,0.3-2.5,1-3.6c0.7-1.1,1.8-2,3.2-2.6
	c1.4-0.6,3.2-1,5.4-1c1.5,0,3,0.2,4.4,0.7c1.4,0.4,2.7,1,3.8,1.8L105,8.2c-1.1-0.7-2.3-1.3-3.6-1.7c-1.3-0.4-2.6-0.6-3.8-0.6
	c-2.5,0-4.4,0.5-5.7,1.5c-1.3,1-1.9,2.3-1.9,3.9c0,1.2,0.3,2.2,1,2.9c0.7,0.7,1.6,1.3,2.6,1.7c1,0.4,2.4,0.8,4.2,1.2
	c2,0.5,3.6,1,4.8,1.4c1.2,0.5,2.2,1.2,3,2.1c0.8,0.9,1.3,2.2,1.3,3.8c0,1.3-0.4,2.5-1.1,3.6c-0.7,1.1-1.8,1.9-3.3,2.6
	c-1.5,0.6-3.3,1-5.4,1C95.1,31.6,93.2,31.3,91.4,30.6z"/>
<path class="st1" d="M130.8,29.7v1.8h-18.7V4.4h18.1v1.8h-16.1v10.7h14.4v1.7h-14.4v11.1H130.8z"/>
<path class="st1" d="M140,29.8c-2.1-1.2-3.8-2.8-5-4.9c-1.2-2.1-1.8-4.4-1.8-7c0-2.6,0.6-4.9,1.8-7c1.2-2.1,2.9-3.7,5-4.9
	c2.1-1.2,4.5-1.8,7.2-1.8c2.7,0,5.1,0.6,7.2,1.8c2.1,1.2,3.8,2.8,5,4.9c1.2,2.1,1.8,4.4,1.8,7c0,2.6-0.6,4.9-1.8,7
	c-1.2,2.1-2.9,3.7-5,4.9c-2.1,1.2-4.5,1.8-7.2,1.8C144.6,31.6,142.2,31,140,29.8z M153.4,28.3c1.8-1,3.3-2.5,4.3-4.3
	c1.1-1.8,1.6-3.8,1.6-6.1c0-2.2-0.5-4.3-1.6-6.1c-1.1-1.8-2.5-3.2-4.3-4.3c-1.8-1-3.9-1.5-6.1-1.5c-2.3,0-4.3,0.5-6.2,1.5
	c-1.8,1-3.3,2.5-4.3,4.3c-1.1,1.8-1.6,3.8-1.6,6.1c0,2.2,0.5,4.3,1.6,6.1c1.1,1.8,2.5,3.2,4.3,4.3c1.8,1,3.9,1.5,6.2,1.5
	C149.5,29.8,151.5,29.3,153.4,28.3z"/>
<polygon class="st1" points="23.7,6.4 31.6,3.5 28.7,11.3 27.9,9.5 12.5,24.9 7.8,24.9 25.5,7.2 "/>
<path class="st2" d="M33.8,24.1c0.9-2.1,1.3-4.3,1.3-6.6c0-2.3-0.4-4.5-1.3-6.6c-0.2-0.6-0.5-1.2-0.8-1.7L31.2,14
	c1.2,4.7,0,9.8-3.7,13.5c-3.3,3.3-7.9,4.6-12.2,3.9c-0.4-0.1-1.1-0.3-1.1-0.3s0.6,0,2.2-0.6l5.8-5.8l0.7,1.6l2.8-7.3l-7.3,2.8
	l1.6,0.7l-7.9,7.9c0,0,0,0,0,0l-2.6,2.6c0,0,0,0,0,0l-1.1,1.1l2.7-0.3c2,0.8,4.2,1.2,6.4,1.2c2.3,0,4.5-0.4,6.6-1.3
	c2.2-0.9,4.1-2.2,5.8-3.8S32.9,26.3,33.8,24.1z"/>
<path class="st2" d="M15.3,12.2l0.7,1.6l2.8-7.3l-7.3,2.8l1.6,0.7l-8.6,8.6c-0.6,1.6-0.6,2.2-0.6,2.2s-0.2-0.7-0.3-1.1
	c-0.7-4.3,0.6-8.9,3.9-12.2c3.7-3.7,8.8-4.9,13.5-3.7l4.8-1.8c-0.6-0.3-1.1-0.6-1.7-0.8C22,0.4,19.8,0,17.5,0
	c-2.3,0-4.5,0.4-6.6,1.3C8.7,2.2,6.8,3.5,5.1,5.1s-3,3.6-3.8,5.8C0.4,13,0,15.2,0,17.5c0,2.2,0.4,4.3,1.2,6.4l-0.3,2.7L2,25.5
	c0,0,0,0,0,0L4.5,23c0,0,0,0,0,0L15.3,12.2z"/>
</svg>
