<?xml version="1.0" encoding="utf-8"?>
<!-- Generator: Adobe Illustrator 22.0.0, SVG Export Plug-In . SVG Version: 6.00 Build 0)  -->
<svg version="1.1" id="Layer_1" xmlns="http://www.w3.org/2000/svg" xmlns:xlink="http://www.w3.org/1999/xlink" x="0px" y="0px"
	 viewBox="0 0 17 25" style="enable-background:new 0 0 17 25;" xml:space="preserve">
<style type="text/css">
	.st0{fill:#566796;}
</style>
<g transform="translate(0 1080)">
	<path class="st0" d="M8.6-1055c-0.2,0-0.4-0.1-0.6-0.3c-0.1-0.1-2-2.5-3.9-6c-3.6-5.8-3.9-8.4-3.9-10.5c0-4.5,3.8-8.2,8.4-8.2
		s8.4,3.7,8.4,8.2c0,2.1-0.2,4.1-3.9,10.5c-1.9,3.5-3.8,5.9-3.9,6C9-1055.1,8.8-1055,8.6-1055L8.6-1055z M8.6-1078.6
		c-3.9,0-7.2,3.1-7,6.8c0.2,4.3,2.5,7.8,3.8,9.9c1.3,2.3,2.5,4.1,3.2,5.1c0.7-1,2-2.8,3.2-5.1c1.7-3.1,3.6-5.4,3.8-9.9
		C15.7-1075.6,12.5-1078.6,8.6-1078.6z"/>
	<path class="st0" d="M8.6-1067.7c-2.3,0-4.2-1.8-4.2-4.1c0-2.3,1.9-4.1,4.2-4.1c2.3,0,4.2,1.8,4.2,4.1
		C12.8-1069.5,10.9-1067.7,8.6-1067.7z M8.6-1074.5c-1.5,0-2.8,1.2-2.8,2.7c0,1.5,1.3,2.7,2.8,2.7c1.5,0,2.8-1.2,2.8-2.7
		C11.4-1073.3,10.1-1074.5,8.6-1074.5z"/>
</g>
</svg>
